<?xml version="1.0" encoding="UTF-8"?>
<svg version="1.1" xmlns="http://www.w3.org/2000/svg" width="263" height="192">
<path d="M0 0 C86.79 0 173.58 0 263 0 C263 63.36 263 126.72 263 192 C176.21 192 89.42 192 0 192 C0 128.64 0 65.28 0 0 Z " fill="#FEFEFE" transform="translate(0,0)"/>
<path d="M0 0 C0.66 0.66 1.32 1.32 2 2 C4.9115221 2.19878648 7.72795033 2.27266289 10.640625 2.25878906 C11.53503296 2.2622937 12.42944092 2.26579834 13.35095215 2.26940918 C16.3173796 2.27823594 19.28356998 2.27237401 22.25 2.265625 C24.30501349 2.26697138 26.36002667 2.26891168 28.41503906 2.27142334 C32.72594225 2.27437588 37.03676267 2.27007276 41.34765625 2.26074219 C46.88298124 2.24934761 52.4181123 2.25590638 57.95343018 2.26788712 C62.19809438 2.27510219 66.44271235 2.27281941 70.68737793 2.26763153 C72.72880069 2.26629406 74.7702276 2.26794615 76.81164551 2.27259064 C79.66100237 2.27765007 82.51004188 2.26995386 85.359375 2.25878906 C86.2093103 2.26283752 87.05924561 2.26688599 87.93493652 2.27105713 C92.44167263 2.43420527 92.44167263 2.43420527 96 0 C98.5 -0.25 98.5 -0.25 101 0 C101.99 0.99 101.99 0.99 103 2 C105.9115221 2.19878648 108.72795033 2.27266289 111.640625 2.25878906 C112.53503296 2.2622937 113.42944092 2.26579834 114.35095215 2.26940918 C117.3173796 2.27823594 120.28356998 2.27237401 123.25 2.265625 C125.30501349 2.26697138 127.36002667 2.26891168 129.41503906 2.27142334 C133.72594225 2.27437588 138.03676267 2.27007276 142.34765625 2.26074219 C147.88298124 2.24934761 153.4181123 2.25590638 158.95343018 2.26788712 C163.19809438 2.27510219 167.44271235 2.27281941 171.68737793 2.26763153 C173.72880069 2.26629406 175.7702276 2.26794615 177.81164551 2.27259064 C180.66100237 2.27765007 183.51004188 2.26995386 186.359375 2.25878906 C187.2093103 2.26283752 188.05924561 2.26688599 188.93493652 2.27105713 C193.44167263 2.43420527 193.44167263 2.43420527 197 0 C199.83386167 -0.3633156 201.40522151 -0.3568671 203.875 1.125 C205 3 205 3 204.75 6.125 C204 9 204 9 203 10 C200 10.125 200 10.125 197 10 C196.67 9.67 196.34 9.34 196 9 C194.06693502 8.90603943 192.13041162 8.88256483 190.19506836 8.88647461 C188.95385727 8.88655014 187.71264618 8.88662567 186.43382263 8.88670349 C185.0691626 8.89181089 183.70450298 8.8970269 182.33984375 8.90234375 C180.95121817 8.904208 179.56259193 8.90563187 178.17396545 8.90663147 C174.51278885 8.91045613 170.8516517 8.92028597 167.19049072 8.93133545 C163.45707737 8.94155068 159.72365766 8.94612933 155.99023438 8.95117188 C148.66013823 8.96190829 141.33007464 8.97898409 134 9 C135.20474976 9.49463745 135.20474976 9.49463745 136.43383789 9.99926758 C137.49852295 10.43907959 138.56320801 10.8788916 139.66015625 11.33203125 C140.71082275 11.76491455 141.76148926 12.19779785 142.84399414 12.64379883 C163.34663328 21.45420808 182.65976725 38.14208274 192.65234375 58.33984375 C194.26765338 61.5283245 195.85243537 62.42621768 199 64 C200 65 200 65 200.25 67.375 C200 70 200 70 198.8125 71.875 C197 73 197 73 194.4375 72.8125 C192 72 192 72 190 70 C189.71530436 68.53051037 189.4955237 67.04808195 189.3125 65.5625 C186.14254249 48.80014895 169.43909162 34.26257834 156 25 C142.49459963 15.84023683 125.23353769 8.84051561 108.75 8.875 C106.88601562 8.87113281 106.88601562 8.87113281 104.984375 8.8671875 C102.11659087 8.65841892 102.11659087 8.65841892 101 10 C99.63875 9.7834375 99.63875 9.7834375 98.25 9.5625 C79.33560247 6.77872778 62.25405726 12.75002223 46 22 C45.01644531 22.54398438 44.03289062 23.08796875 43.01953125 23.6484375 C31.53632375 30.44225435 21.72740303 40.18501017 14 51 C13.32710937 51.91910156 12.65421875 52.83820313 11.9609375 53.78515625 C7.96386733 59.57374194 6.36328576 62.99614341 7 70 C5 72 5 72 2 72.25 C-1 72 -1 72 -3 70 C-3.3125 67 -3.3125 67 -3 64 C-0 62 -0 62 3 62 C3.26683594 61.28199219 3.53367187 60.56398437 3.80859375 59.82421875 C7.69710231 50.60654108 14.13886521 43.13881984 21 36 C21.73347656 35.21496094 22.46695313 34.42992187 23.22265625 33.62109375 C33.58112013 22.82417638 47.72958345 13.75680552 62 9 C54.06386213 8.97687236 46.12773824 8.95908277 38.19157505 8.94818783 C34.50685502 8.94295992 30.82215797 8.93586395 27.13745117 8.92456055 C23.58429169 8.91372838 20.03115437 8.90772247 16.47797966 8.90512276 C15.11954334 8.9032691 13.76110829 8.89964962 12.40268135 8.89426994 C10.50617777 8.88705525 8.60965207 8.88659191 6.71313477 8.88647461 C5.63169693 8.884254 4.55025909 8.88203339 3.43605042 8.87974548 C1.05202528 8.7241803 1.05202528 8.7241803 0 10 C-2.9375 10.25 -2.9375 10.25 -6 10 C-8 7 -8 7 -7.75 3.875 C-7.37875 2.451875 -7.37875 2.451875 -7 1 C-4.48718205 -0.25640898 -2.78302919 -0.20872719 0 0 Z " fill="#3DB969" transform="translate(26,18)"/>
<path d="M0 0 C3.69344735 3.07787279 5.81459014 6.38568706 6.63671875 11.0859375 C6.86421234 15.68287695 6.26071708 19.46755333 3.671875 23.32421875 C-2.55098373 30.11123775 -13.33855468 32.40039018 -21.81982422 35.22949219 C-23.56839617 35.81426631 -25.31004826 36.41963223 -27.05078125 37.02734375 C-30.51164863 38.11418633 -33.13896695 38.2618964 -36.75 37.875 C-41.05810363 35.59423926 -44.19419417 33.04001691 -46.75 28.875 C-48.06109548 23.54321173 -47.85433502 19.96706589 -46.02734375 14.83203125 C-41.4770523 7.86048379 -34.11481766 5.78904293 -26.625 3.125 C-25.54089844 2.72667969 -24.45679687 2.32835938 -23.33984375 1.91796875 C-8.52077395 -3.48577116 -8.52077395 -3.48577116 0 0 Z " fill="#B3B495" transform="translate(94.75,120.125)"/>
<path d="M0 0 C8.72513069 2.5525132 16.68525969 6.56427792 24.8125 10.5625 C26.23087197 11.25506507 27.64949008 11.94712626 29.06835938 12.63867188 C34.05562147 15.07215151 39.0409806 17.5093196 44 20 C42.65515286 24.04161955 40.9494838 26.38678154 37.875 29.3125 C37.15054688 30.00988281 36.42609375 30.70726562 35.6796875 31.42578125 C35.12539062 31.94527344 34.57109375 32.46476562 34 33 C36.82802574 38.23184763 40.02105926 42.81302625 43.75 47.4375 C44.25660156 48.07365234 44.76320312 48.70980469 45.28515625 49.36523438 C46.51916741 50.91356913 47.75897683 52.45727982 49 54 C47.309856 57.73692389 45.85382897 59.34835901 42 61 C38.57821492 59.80518555 36.9004256 57.94657031 34.765625 55.0859375 C33.90517578 53.94511719 33.90517578 53.94511719 33.02734375 52.78125 C32.44082031 51.9871875 31.85429687 51.193125 31.25 50.375 C30.64800781 49.57320312 30.04601562 48.77140625 29.42578125 47.9453125 C27.94334655 45.9687329 26.46848138 43.98695558 25 42 C20.85595135 42.94252103 17.81466857 44.81008558 14.21875 47.0390625 C11.58580329 48.17938801 10.66737168 47.80259059 8 47 C7.01570917 41.9148169 6.03734967 36.82853961 5.06420898 31.74121094 C4.73311128 30.01466933 4.40046133 28.28842458 4.06616211 26.5625 C0.64976391 8.91366267 0.64976391 8.91366267 0 0 Z " fill="#D33536" transform="translate(198,120)"/>
<path d="M0 0 C0.66 0 1.32 0 2 0 C2.72703125 1.57974609 2.72703125 1.57974609 3.46875 3.19140625 C7.22866498 11.29958015 11.08522963 19.2973482 15.47265625 27.08813477 C18.90359914 33.30061697 18.90359914 33.30061697 19 37 C17.56640625 39.5078125 17.56640625 39.5078125 15.5625 42.125 C12.03257858 47.26959834 11.34574643 50.72580995 11.8515625 56.8828125 C11.90054688 57.58148438 11.94953125 58.28015625 12 59 C11 60 11 60 9.05053711 60.11352539 C7.8015564 60.10567017 7.8015564 60.10567017 6.52734375 60.09765625 C5.62822266 60.09443359 4.72910156 60.09121094 3.80273438 60.08789062 C2.38444336 60.07532227 2.38444336 60.07532227 0.9375 60.0625 C-0.01189453 60.05798828 -0.96128906 60.05347656 -1.93945312 60.04882812 C-4.29303065 60.0370011 -6.64648477 60.02052025 -9 60 C-8.92845703 59.2685376 -8.85691406 58.5370752 -8.78320312 57.78344727 C-8.15344655 50.37614453 -10.01933855 46.48224418 -14.56640625 40.703125 C-16.52305854 37.01374248 -15.8481653 35.05219878 -15 31 C-13.6171875 27.68261719 -13.6171875 27.68261719 -11.875 24.296875 C-11.56804199 23.6924054 -11.26108398 23.08793579 -10.94482422 22.46514893 C-9.97265324 20.5550949 -8.98695606 18.65244955 -8 16.75 C-7.01592367 14.83191777 -6.03470717 12.91241129 -5.05517578 10.99200439 C-4.16937797 9.25871198 -3.27628448 7.52915375 -2.3828125 5.79980469 C-0.93118734 3.02118505 -0.93118734 3.02118505 0 0 Z " fill="#D1C1C3" transform="translate(123,34)"/>
<path d="M0 0 C29.7 0 59.4 0 90 0 C90.495 1.98 90.495 1.98 91 4 C90.28199219 4.01417969 89.56398438 4.02835938 88.82421875 4.04296875 C72.24001741 4.80712249 57.34774258 9.83488173 43 18 C42.01644531 18.54398438 41.03289062 19.08796875 40.01953125 19.6484375 C28.53632375 26.44225435 18.72740303 36.18501017 11 47 C10.32710937 47.91910156 9.65421875 48.83820313 8.9609375 49.78515625 C4.96386733 55.57374194 3.36328576 58.99614341 4 66 C2 68 2 68 -1 68.25 C-4 68 -4 68 -6 66 C-6.3125 63 -6.3125 63 -6 60 C-3 58 -3 58 0 58 C0.26683594 57.28199219 0.53367187 56.56398437 0.80859375 55.82421875 C4.69710231 46.60654108 11.13886521 39.13881984 18 32 C18.73347656 31.21496094 19.46695313 30.42992188 20.22265625 29.62109375 C30.58112013 18.82417638 44.72958345 9.75680552 59 5 C29.3 4.505 29.3 4.505 -1 4 C-0.67 2.68 -0.34 1.36 0 0 Z " fill="#88C08C" transform="translate(29,22)"/>
<path d="M0 0 C3.50521172 2.52375244 5.35511441 5.05958519 7 9 C7.15234375 11.18359375 7.15234375 11.18359375 6.9375 13.4375 C6.88464844 14.17871094 6.83179688 14.91992188 6.77734375 15.68359375 C5.61831108 19.13739461 3.79694352 20.69420876 1 23 C-1.54935278 24.161589 -3.92497045 25.1216642 -6.5625 26 C-7.98905912 26.50039204 -9.41483549 27.00302089 -10.83984375 27.5078125 C-11.54222168 27.7543457 -12.24459961 28.00087891 -12.96826172 28.25488281 C-16.8456972 29.67688871 -20.59501543 31.40575202 -24.3515625 33.1171875 C-27.36364111 34.1212137 -29.8456038 34.15725729 -33 34 C-33 33.67 -33 33.34 -33 33 C-32.39671875 32.84144531 -31.7934375 32.68289062 -31.171875 32.51953125 C-27.36428908 31.40796181 -24.51836891 30.4298669 -21.4375 27.875 C-18.98421305 22.9684261 -19.46055827 18.30488741 -20.6875 13.0625 C-22.41129346 10.35368171 -23.98716965 9.95528767 -27 9 C-27.99 8.34 -28.98 7.68 -30 7 C-29.11957031 6.66226563 -28.23914062 6.32453125 -27.33203125 5.9765625 C-26.17058594 5.53054687 -25.00914063 5.08453125 -23.8125 4.625 C-22.08966797 3.96371094 -22.08966797 3.96371094 -20.33203125 3.2890625 C-18.35380239 2.52374536 -16.38665446 1.72667144 -14.44921875 0.86328125 C-9.75552046 -0.79111639 -4.89087984 -0.67063311 0 0 Z " fill="#349F43" transform="translate(92,122)"/>
<path d="M0 0 C9.49648807 9.19014974 18.14625505 19.38015621 26 30 C25.09636719 30.74765625 24.19273437 31.4953125 23.26171875 32.265625 C22.07012082 33.26018705 20.87872518 34.25499151 19.6875 35.25 C18.79514648 35.98669922 18.79514648 35.98669922 17.88476562 36.73828125 C14.81594694 39.30991702 12.38204841 41.7622643 10 45 C9.34 45 8.68 45 8 45 C6.8544825 39.3961802 5.71533787 33.79111654 4.58203125 28.18481445 C4.19575266 26.27853611 3.80774729 24.37260681 3.41796875 22.46704102 C2.85741069 19.72502551 2.30311262 16.98180704 1.75 14.23828125 C1.57500977 13.38913651 1.40001953 12.53999176 1.21972656 11.66511536 C0.43028374 7.71976269 -0.23028379 4.04795732 0 0 Z " fill="#CC4723" transform="translate(198,120)"/>
<path d="M0 0 C1.16804169 0.00444122 2.33608337 0.00888245 3.53952026 0.01345825 C4.18354797 0.0131662 4.82757568 0.01287415 5.49111938 0.01257324 C7.623112 0.0139683 9.75475655 0.02953729 11.88668823 0.04519653 C13.36356414 0.04892605 14.84044252 0.05177331 16.31732178 0.05377197 C20.20704971 0.0614133 24.09662861 0.08106596 27.98629761 0.10317993 C31.95437606 0.12362768 35.92247855 0.13277139 39.89059448 0.14285278 C47.67842289 0.16431147 55.46612844 0.19845331 63.25387573 0.24050903 C63.25387573 0.57050903 63.25387573 0.90050903 63.25387573 1.24050903 C43.12387573 1.57050903 22.99387573 1.90050903 2.25387573 2.24050903 C6.21387573 3.89050903 10.17387573 5.54050903 14.25387573 7.24050903 C33.37603273 16.69169008 51.32206969 32.20813512 60.90621948 51.58035278 C62.52152911 54.76883353 64.1063111 55.66672672 67.25387573 57.24050903 C68.25387573 58.24050903 68.25387573 58.24050903 68.50387573 60.61550903 C68.25387573 63.24050903 68.25387573 63.24050903 67.06637573 65.11550903 C65.25387573 66.24050903 65.25387573 66.24050903 62.69137573 66.05300903 C60.25387573 65.24050903 60.25387573 65.24050903 58.25387573 63.24050903 C57.96918009 61.7710194 57.74939943 60.28859098 57.56637573 58.80300903 C54.46038216 42.37889151 38.66504694 28.9541665 25.88424683 19.46707153 C23.24195833 17.47922227 20.71896253 15.44827209 18.25387573 13.24050903 C18.25387573 12.58050903 18.25387573 11.92050903 18.25387573 11.24050903 C17.62481323 11.07035278 16.99575073 10.90019653 16.34762573 10.72488403 C11.27714356 9.28926559 6.67268724 7.62399748 2.01559448 5.15847778 C-0.17662214 4.01619196 -2.43306404 3.10790662 -4.74612427 2.24050903 C-2.74612427 0.24050903 -2.74612427 0.24050903 0 0 Z " fill="#4DA44B" transform="translate(157.74612426757813,24.759490966796875)"/>
<path d="M0 0 C8.53691161 3.20290699 16.69041696 7.13107102 24.875 11.125 C26.19255818 11.76463231 27.51026566 12.40395717 28.828125 13.04296875 C38.5126204 17.74330925 38.5126204 17.74330925 43 20 C43 20.33 43 20.66 43 21 C42.030625 21.20625 41.06125 21.4125 40.0625 21.625 C35.77603945 22.80116296 32.62156507 25.19465669 29.11328125 27.85546875 C27 29 27 29 25.0234375 28.98046875 C22.10343844 27.56556573 20.45111877 25.55634437 18.3125 23.125 C17.43980469 22.13628906 16.56710938 21.14757812 15.66796875 20.12890625 C12.36750903 16.28817484 9.16691129 12.36777264 6.0078125 8.41015625 C4.03951264 5.96121763 4.03951264 5.96121763 1.7421875 3.80859375 C0 2 0 2 0 0 Z " fill="#D6633A" transform="translate(199,120)"/>
<path d="M0 0 C0.66 0.66 1.32 1.32 2 2 C4.9115221 2.19878648 7.72795033 2.27266289 10.640625 2.25878906 C11.53503296 2.2622937 12.42944092 2.26579834 13.35095215 2.26940918 C16.3173796 2.27823594 19.28356998 2.27237401 22.25 2.265625 C24.30501349 2.26697138 26.36002667 2.26891168 28.41503906 2.27142334 C32.72594225 2.27437588 37.03676267 2.27007276 41.34765625 2.26074219 C46.88298124 2.24934761 52.4181123 2.25590638 57.95343018 2.26788712 C62.19809438 2.27510219 66.44271235 2.27281941 70.68737793 2.26763153 C72.72880069 2.26629406 74.7702276 2.26794615 76.81164551 2.27259064 C79.66100237 2.27765007 82.51004188 2.26995386 85.359375 2.25878906 C86.2093103 2.26283752 87.05924561 2.26688599 87.93493652 2.27105713 C92.44167263 2.43420527 92.44167263 2.43420527 96 0 C98.4375 -0.375 98.4375 -0.375 101 0 C101.37042923 0.65836853 101.74085846 1.31673706 102.12251282 1.99505615 C103.97968369 4.40543473 103.97968369 4.40543473 107.7775116 4.48101807 C109.38575579 4.49263247 110.99424969 4.48193739 112.60229492 4.45410156 C113.91968407 4.45497772 113.91968407 4.45497772 115.26368713 4.45587158 C118.16968162 4.45308251 121.07465324 4.42195179 123.98046875 4.390625 C125.99399759 4.38316554 128.00753369 4.37747122 130.02107239 4.37347412 C135.32311006 4.35819463 140.62471007 4.31889271 145.92657471 4.2746582 C151.3357552 4.2337555 156.74500634 4.21547379 162.15429688 4.1953125 C172.76972364 4.15240083 183.38482544 4.08412138 194 4 C194 4.33 194 4.66 194 5 C192.51328545 5.0154612 192.51328545 5.0154612 190.99653625 5.03123474 C181.65328187 5.12901586 172.31009339 5.23175439 162.9669466 5.33933926 C158.16361561 5.39448971 153.36027844 5.44789703 148.55688477 5.49731445 C143.92085243 5.5450743 139.28489244 5.59742113 134.64894676 5.65294075 C132.88075756 5.67331171 131.11254855 5.69203334 129.34432411 5.70907402 C126.86660235 5.73323472 124.38901602 5.76327295 121.91137695 5.79467773 C121.18129425 5.8004332 120.45121155 5.80618866 119.69900513 5.81211853 C116.0157657 5.8651395 112.58360833 6.12950232 109 7 C109 7.33 109 7.66 109 8 C107.865625 8.144375 106.73125 8.28875 105.5625 8.4375 C102.19222799 8.61171478 102.19222799 8.61171478 101 10 C98.66055264 9.71269945 96.3260857 9.38063221 94 9 C93.505 7.02 93.505 7.02 93 5 C81.31737603 4.88427433 69.63488785 4.79537002 57.95180798 4.74093914 C52.52715534 4.71481813 47.10289412 4.67937408 41.6784668 4.62280273 C36.44594273 4.56857274 31.21379569 4.53859834 25.98101234 4.52561378 C23.98222223 4.51635771 21.98345331 4.49828306 19.98482323 4.47134972 C17.19018952 4.43517902 14.3971241 4.43004959 11.60229492 4.43237305 C10.77151428 4.41439667 9.94073364 4.39642029 9.08477783 4.37789917 C6.5198059 4.34403209 6.5198059 4.34403209 3 5 C1.09941471 7.40240189 1.09941471 7.40240189 0 10 C-3.0625 10.5 -3.0625 10.5 -6 10 C-8 7 -8 7 -7.75 3.875 C-7.37875 2.451875 -7.37875 2.451875 -7 1 C-4.48718205 -0.25640898 -2.78302919 -0.20872719 0 0 Z " fill="#53C984" transform="translate(26,18)"/>
<path d="M0 0 C29.7 0 59.4 0 90 0 C90.495 1.98 90.495 1.98 91 4 C90.28199219 4.01417969 89.56398438 4.02835938 88.82421875 4.04296875 C80.6029277 4.42178291 73.24307208 6.05468376 65.36206055 8.36010742 C64.58000244 8.5841626 63.79794434 8.80821777 62.9921875 9.0390625 C62.29464355 9.24740723 61.59709961 9.45575195 60.87841797 9.67041016 C59 10 59 10 56 9 C61.28 7.35 66.56 5.7 72 4 C47.91 3.67 23.82 3.34 -1 3 C-0.67 2.01 -0.34 1.02 0 0 Z " fill="#43AF5F" transform="translate(29,22)"/>
<path d="M0 0 C5.78643543 0.04123351 5.78643543 0.04123351 9.375 2.625 C12.1089345 6.6347706 13.63260212 9.01818611 13 13.9375 C12.91234375 14.70191406 12.8246875 15.46632812 12.734375 16.25390625 C12.25 18.375 12.25 18.375 10.25 21.375 C9.59 21.375 8.93 21.375 8.25 21.375 C8.03085938 20.84390625 7.81171875 20.3128125 7.5859375 19.765625 C5.31590937 14.70881437 3.29688949 12.05951568 -1.75 9.375 C-6.55702252 7.77265916 -10.54984085 8.00253681 -15.375 9.5 C-19.10841103 10.46792138 -20.43049654 10.18563825 -23.75 8.375 C-20.43549752 5.51061514 -17.24985238 4.44102744 -13.0625 3.25 C-1.95374523 0.06194802 -1.95374523 0.06194802 0 0 Z " fill="#2A7C27" transform="translate(85.75,121.625)"/>
<path d="M0 0 C1.88818767 2.42805071 3.51166387 4.77865444 4.8671875 7.5390625 C5.19323975 8.19737061 5.51929199 8.85567871 5.85522461 9.53393555 C6.19175049 10.22398682 6.52827637 10.91403809 6.875 11.625 C7.58183987 13.06129211 8.28887094 14.49749015 8.99609375 15.93359375 C9.33753418 16.62952637 9.67897461 17.32545898 10.03076172 18.04248047 C11.66790054 21.34892355 13.3774732 24.61870309 15.08984375 27.88671875 C16.10193213 30.23667504 16.58104876 32.48188258 17 35 C16.01 35.495 16.01 35.495 15 36 C15 35.34 15 34.68 15 34 C10.38 34 5.76 34 1 34 C1 32.02 1 30.04 1 28 C0.67 27.67 0.34 27.34 0 27 C-0.08758003 25.00035018 -0.10696576 22.9976389 -0.09765625 20.99609375 C-0.09443359 19.78115234 -0.09121094 18.56621094 -0.08789062 17.31445312 C-0.07951172 16.03505859 -0.07113281 14.75566406 -0.0625 13.4375 C-0.05798828 12.15423828 -0.05347656 10.87097656 -0.04882812 9.54882812 C-0.03699545 6.36583978 -0.02051068 3.18294238 0 0 Z " fill="#D4CCD2" transform="translate(125,36)"/>
<path d="M0 0 C3.31255326 -0.02683436 6.62489183 -0.0467578 9.9375 -0.0625 C10.88302734 -0.07087891 11.82855469 -0.07925781 12.80273438 -0.08789062 C14.15141602 -0.09272461 14.15141602 -0.09272461 15.52734375 -0.09765625 C16.77632446 -0.10551147 16.77632446 -0.10551147 18.05053711 -0.11352539 C20 0 20 0 21 1 C21.1328125 2.8125 21.1328125 2.8125 21.125 5 C21.12886719 6.0828125 21.12886719 6.0828125 21.1328125 7.1875 C21 9 21 9 20 10 C18.5112814 10.08669432 17.018555 10.10703494 15.52734375 10.09765625 C14.62822266 10.09443359 13.72910156 10.09121094 12.80273438 10.08789062 C11.85720703 10.07951172 10.91167969 10.07113281 9.9375 10.0625 C8.98810547 10.05798828 8.03871094 10.05347656 7.06054688 10.04882812 C4.70700469 10.03700128 2.35349468 10.01906521 0 10 C0 6.7 0 3.4 0 0 Z " fill="#CD4A28" transform="translate(114,84)"/>
<path d="M0 0 C1.16804169 0.00444122 2.33608337 0.00888245 3.53952026 0.01345825 C4.18354797 0.0131662 4.82757568 0.01287415 5.49111938 0.01257324 C7.623112 0.0139683 9.75475655 0.02953729 11.88668823 0.04519653 C13.36356414 0.04892605 14.84044252 0.05177331 16.31732178 0.05377197 C20.20704971 0.0614133 24.09662861 0.08106596 27.98629761 0.10317993 C31.95437606 0.12362768 35.92247855 0.13277139 39.89059448 0.14285278 C47.67842289 0.16431147 55.46612844 0.19845331 63.25387573 0.24050903 C63.25387573 0.57050903 63.25387573 0.90050903 63.25387573 1.24050903 C43.12387573 1.57050903 22.99387573 1.90050903 2.25387573 2.24050903 C6.21387573 3.89050903 10.17387573 5.54050903 14.25387573 7.24050903 C28.605385 14.33378373 44.07447772 25.11245792 52.25387573 39.24050903 C50.93387573 38.91050903 49.61387573 38.58050903 48.25387573 38.24050903 C48.25387573 37.58050903 48.25387573 36.92050903 48.25387573 36.24050903 C47.59387573 36.24050903 46.93387573 36.24050903 46.25387573 36.24050903 C45.91356323 35.37425903 45.91356323 35.37425903 45.56637573 34.49050903 C43.90625934 31.64459522 41.86199616 30.24208983 39.25387573 28.24050903 C38.42887573 27.39488403 37.60387573 26.54925903 36.75387573 25.67800903 C34.36212667 23.3460537 32.11077202 21.92534531 29.25387573 20.24050903 C28.32575073 19.25050903 28.32575073 19.25050903 27.37887573 18.24050903 C24.56801789 15.59499577 21.84646028 14.62227232 18.25387573 13.24050903 C18.25387573 12.58050903 18.25387573 11.92050903 18.25387573 11.24050903 C17.62481323 11.07035278 16.99575073 10.90019653 16.34762573 10.72488403 C11.27714356 9.28926559 6.67268724 7.62399748 2.01559448 5.15847778 C-0.17662214 4.01619196 -2.43306404 3.10790662 -4.74612427 2.24050903 C-2.74612427 0.24050903 -2.74612427 0.24050903 0 0 Z " fill="#8CCD9F" transform="translate(157.74612426757813,24.759490966796875)"/>
<path d="M0 0 C0.66 0 1.32 0 2 0 C2.14330576 4.0567725 2.28569503 8.11357604 2.42724609 12.17041016 C2.47549846 13.5496507 2.52399846 14.92888261 2.57275391 16.30810547 C2.64290893 18.29392223 2.71209099 20.2797733 2.78125 22.265625 C2.8440918 24.05661621 2.8440918 24.05661621 2.90820312 25.88378906 C2.97805473 28.25502811 3 30.62773234 3 33 C1.68 33 0.36 33 -1 33 C-1 32.34 -1 31.68 -1 31 C-1.66 31 -2.32 31 -3 31 C-4.7392797 27.5214406 -4.91254334 23.56846828 -5.5 19.75 C-5.85833333 17.05 -5.85833333 17.05 -7 15 C-5.92591043 12.39525962 -4.79954367 9.90033962 -3.5625 7.375 C-3.22412109 6.66859375 -2.88574219 5.9621875 -2.53710938 5.234375 C-1.69845121 3.48618616 -0.85012153 1.74264314 0 0 Z " fill="#D2C3C6" transform="translate(123,34)"/>
<path d="M0 0 C0.66 0.66 1.32 1.32 2 2 C4.9206003 2.21785903 7.74913191 2.31144537 10.67236328 2.31884766 C12.0187941 2.33391609 12.0187941 2.33391609 13.39242554 2.34928894 C16.36838116 2.38025475 19.34424629 2.39719317 22.3203125 2.4140625 C24.38012478 2.43276338 26.43992931 2.45233597 28.49972534 2.4727478 C33.92811527 2.52418913 39.35653008 2.5637505 44.78503418 2.60089111 C50.3215964 2.6408557 55.8580541 2.69198236 61.39453125 2.7421875 C72.26294754 2.83908881 83.13142268 2.92344797 94 3 C93.67 3.66 93.34 4.32 93 5 C91.87913498 4.98889694 90.75826996 4.97779388 89.60343933 4.96635437 C79.05298785 4.86510379 68.50263462 4.79009491 57.95180798 4.74093914 C52.52715534 4.71481813 47.10289412 4.67937408 41.6784668 4.62280273 C36.44594273 4.56857274 31.21379569 4.53859834 25.98101234 4.52561378 C23.98222223 4.51635771 21.98345331 4.49828306 19.98482323 4.47134972 C17.19018952 4.43517902 14.3971241 4.43004959 11.60229492 4.43237305 C10.77151428 4.41439667 9.94073364 4.39642029 9.08477783 4.37789917 C6.5198059 4.34403209 6.5198059 4.34403209 3 5 C1.09941471 7.40240189 1.09941471 7.40240189 0 10 C-3.0625 10.5 -3.0625 10.5 -6 10 C-8 7 -8 7 -7.75 3.875 C-7.37875 2.451875 -7.37875 2.451875 -7 1 C-4.48718205 -0.25640898 -2.78302919 -0.20872719 0 0 Z " fill="#3BCB7D" transform="translate(26,18)"/>
<path d="M0 0 C0.99 0 1.98 0 3 0 C2.44947184 4.16615902 1.11312694 6.64050371 -1.375 10 C-6.59227358 16.42125523 -6.59227358 16.42125523 -8.0625 24.1875 C-8.041875 25.445625 -8.02125 26.70375 -8 28 C-10 30 -10 30 -13 30.25 C-16 30 -16 30 -18 28 C-18.3125 25 -18.3125 25 -18 22 C-15 20 -15 20 -12 20 C-11.74089844 19.28972656 -11.48179688 18.57945313 -11.21484375 17.84765625 C-9.91972723 14.81183649 -8.35397495 12.20754406 -6.5625 9.4375 C-5.96566406 8.50808594 -5.36882813 7.57867187 -4.75390625 6.62109375 C-3.88572266 5.32365234 -3.88572266 5.32365234 -3 4 C-2.49339844 3.22785156 -1.98679687 2.45570312 -1.46484375 1.66015625 C-0.98144531 1.11230469 -0.49804688 0.56445312 0 0 Z " fill="#4FB86D" transform="translate(41,60)"/>
<path d="M0 0 C3.3415471 3.3415471 4.73646493 6.47233266 6 11 C4.27734375 11.703125 4.27734375 11.703125 2 12 C-0.18359375 10.671875 -0.18359375 10.671875 -2.4375 8.75 C-3.23027344 8.10160156 -4.02304688 7.45320312 -4.83984375 6.78515625 C-5.90912109 5.90150391 -5.90912109 5.90150391 -7 5 C-11.35859292 1.84002013 -15.78958154 0.96489231 -21 0 C-19 -3 -19 -3 -17.3125 -3.6875 C-10.43687526 -4.61663848 -5.74308749 -3.84123717 0 0 Z " fill="#30963A" transform="translate(89,133)"/>
<path d="M0 0 C3.69344735 3.07787279 5.81459014 6.38568706 6.63671875 11.0859375 C6.86421234 15.68287695 6.26071708 19.46755333 3.671875 23.32421875 C-3.42295801 31.06226464 -18.59824882 35.19636398 -28.75 36.875 C-28.75 36.215 -28.75 35.555 -28.75 34.875 C-23.77524522 32.49301996 -18.78885736 30.21877836 -13.59765625 28.34765625 C-12.53417969 27.96407959 -12.53417969 27.96407959 -11.44921875 27.57275391 C-10.0477975 27.07412208 -8.64289203 26.58515425 -7.234375 26.10693359 C-3.19962535 24.67149381 -0.37859676 23.30248401 2.25 19.875 C3.77418879 15.90907593 3.79619243 12.27918762 2.2578125 8.32421875 C0.02178768 3.8596382 0.02178768 3.8596382 -3.75 0.875 C-5.9572923 0.80407158 -8.16667452 0.79084975 -10.375 0.8125 C-12.15777344 0.82603516 -12.15777344 0.82603516 -13.9765625 0.83984375 C-15.34941406 0.85724609 -15.34941406 0.85724609 -16.75 0.875 C-12.13839716 -3.73660284 -5.58507081 -2.2848017 0 0 Z " fill="#B3BE9C" transform="translate(94.75,120.125)"/>
<path d="M0 0 C3.72712773 2.48475182 4.21571817 4.92024605 5.4375 9 C7.14648538 14.46678887 9.03326286 19.72236334 11.3984375 24.94921875 C12.11733118 27.39999264 11.87721243 28.62607484 11 31 C9.5625 33.25 9.5625 33.25 8 35 C7.34 35 6.68 35 6 35 C5.13926926 30.82034342 4.28498026 26.63943643 3.43652344 22.45727539 C3.14725708 21.03601981 2.85626228 19.61511483 2.56347656 18.19458008 C2.14188262 16.14755509 1.72660984 14.09933167 1.3125 12.05078125 C1.06113281 10.82012939 0.80976563 9.58947754 0.55078125 8.3215332 C0.07606364 5.45870823 -0.11513122 2.89027326 0 0 Z " fill="#C62508" transform="translate(200,130)"/>
<path d="M0 0 C4.0918919 1.53677388 5.86002029 4.13932636 8.375 7.625 C9.16273348 8.7057488 9.95049399 9.7864779 10.73828125 10.8671875 C11.48464844 11.90101563 12.23101562 12.93484375 13 14 C14.1836394 15.58622144 15.3704746 17.17007084 16.5625 18.75 C17.375 19.83333333 18.1875 20.91666667 19 22 C18.34 23.32 17.68 24.64 17 26 C16.01 26 15.02 26 14 26 C12.60546875 24.56640625 12.60546875 24.56640625 11.1875 22.5625 C10.66929687 21.83160156 10.15109375 21.10070312 9.6171875 20.34765625 C9.08351562 19.57292969 8.54984375 18.79820312 8 18 C7.19949219 16.88431641 7.19949219 16.88431641 6.3828125 15.74609375 C3.05538148 10.98670859 0.80654459 6.51999735 -1 1 C-0.67 0.67 -0.34 0.34 0 0 Z " fill="#D2533A" transform="translate(228,152)"/>
<path d="M0 0 C2.70843769 4.7369795 3.03186093 9.61550214 3 15 C2.0625 18.1875 2.0625 18.1875 0 20 C-2.79777922 20.40755052 -5.1456958 20.23395936 -8 20 C-9.22412363 16.45612828 -9.01938148 15.04998089 -7.63671875 11.484375 C-7.00137284 10.23217558 -6.35114471 8.98743425 -5.6875 7.75 C-5.20506836 6.79480469 -5.20506836 6.79480469 -4.71289062 5.8203125 C-2.29091888 1.14545944 -2.29091888 1.14545944 0 0 Z " fill="#D4C9C8" transform="translate(117,50)"/>
<path d="M0 0 C3.92479699 0.07362534 4.92853312 0.24327484 8.1875 2.6875 C11.11429242 6.71183957 12.56979549 9.09159509 11.9375 14.125 C11.84984375 14.91261719 11.7621875 15.70023438 11.671875 16.51171875 C11.51203125 17.14722656 11.3521875 17.78273437 11.1875 18.4375 C10.5275 18.7675 9.8675 19.0975 9.1875 19.4375 C8.74019531 18.59445313 8.29289062 17.75140625 7.83203125 16.8828125 C7.22746094 15.78710938 6.62289062 14.69140625 6 13.5625 C5.11248047 11.92667969 5.11248047 11.92667969 4.20703125 10.2578125 C2.02601248 7.21197972 0.74189374 6.40743819 -2.8125 5.4375 C-2.8125 4.7775 -2.8125 4.1175 -2.8125 3.4375 C-4.1325 3.1075 -5.4525 2.7775 -6.8125 2.4375 C-4.34214288 -0.03285712 -3.4164993 0.08707719 0 0 Z " fill="#266613" transform="translate(86.8125,121.5625)"/>
<path d="M0 0 C0.66 0.33 1.32 0.66 2 1 C1.796875 2.8125 1.796875 2.8125 1 5 C-1.046875 6.5 -1.046875 6.5 -3.75 8 C-9.97602209 11.74375185 -14.93936494 16.3324888 -20.15234375 21.328125 C-22.36609706 23.40522688 -24.52401637 25.25786212 -27 27 C-27 26.34 -27 25.68 -27 25 C-27.66 24.67 -28.32 24.34 -29 24 C-14.17192055 8.59503561 -14.17192055 8.59503561 -5 3 C-4.12472656 2.42636719 -3.24945313 1.85273437 -2.34765625 1.26171875 C-1.57292969 0.84535156 -0.79820313 0.42898437 0 0 Z " fill="#43B768" transform="translate(71,35)"/>
<path d="M0 0 C0.28875 1.19625 0.5775 2.3925 0.875 3.625 C3.27649673 10.98178022 8.41556852 16.88218235 13 23 C13.66 23.99 14.32 24.98 15 26 C14.34 26.66 13.68 27.32 13 28 C11.10181178 25.64769976 9.20641494 23.29323711 7.3125 20.9375 C6.51682617 19.95233398 6.51682617 19.95233398 5.70507812 18.94726562 C2.31730371 14.72813552 -0.89421416 10.43107479 -4 6 C-8.455 8.97 -8.455 8.97 -13 12 C-13.66 11.67 -14.32 11.34 -15 11 C-12.68977044 9.16374012 -10.37697874 7.33088988 -8.0625 5.5 C-7.40314453 4.97535156 -6.74378906 4.45070312 -6.06445312 3.91015625 C-1.11328125 0 -1.11328125 0 0 0 Z " fill="#C4250A" transform="translate(225,153)"/>
<path d="M0 0 C10.77729028 4.78741945 21.52638121 9.57160002 32 15 C32 15.33 32 15.66 32 16 C28.20401017 17.21408055 26.12958224 17.48115777 22.40820312 15.89599609 C19.46300011 14.24201694 16.60290718 12.49597216 13.75 10.6875 C12.75742188 10.07970703 11.76484375 9.47191406 10.7421875 8.84570312 C7.12095111 6.62045827 3.53651914 4.35767943 0 2 C0 1.34 0 0.68 0 0 Z " fill="#DC6F4B" transform="translate(210,125)"/>
<path d="M0 0 C0.99 0 1.98 0 3 0 C3.32871094 0.72703125 3.65742188 1.4540625 3.99609375 2.203125 C7.83179418 10.31110965 12.43154656 17.02087169 18 24 C17.01 24.99 16.02 25.98 15 27 C14.77183594 26.47148437 14.54367188 25.94296875 14.30859375 25.3984375 C12.23186243 21.59212994 9.42684628 18.32497149 6.72070312 14.953125 C3.00346308 10.23317192 0 6.21874589 0 0 Z " fill="#C63A1A" transform="translate(225,154)"/>
<path d="M0 0 C2 2 2 2 2.3125 4.4375 C2 7 2 7 0.8125 8.875 C-1 10 -1 10 -3.5625 9.8125 C-6 9 -6 9 -8 7 C-7.625 3.375 -7.625 3.375 -7 0 C-3.85179059 -1.04940314 -3.00659136 -1.066855 0 0 Z " fill="#3E3CCA" transform="translate(224,81)"/>
<path d="M0 0 C2 2 2 2 2.25 5 C2 8 2 8 0 10 C-3 10.3125 -3 10.3125 -6 10 C-8 7 -8 7 -7.75 3.875 C-7.37875 2.451875 -7.37875 2.451875 -7 1 C-4.48718205 -0.25640898 -2.78302919 -0.20872719 0 0 Z " fill="#3E218D" transform="translate(26,18)"/>
<path d="M0 0 C2.4375 0.75 2.4375 0.75 4.4375 2.75 C4.6875 5.25 4.6875 5.25 4.4375 7.75 C2.4375 9.75 2.4375 9.75 -0.5625 10 C-3.5625 9.75 -3.5625 9.75 -5.5625 7.75 C-5.875 4.75 -5.875 4.75 -5.5625 1.75 C-2.5625 -0.25 -2.5625 -0.25 0 0 Z " fill="#48247C" transform="translate(28.5625,80.25)"/>
<path d="M0 0 C2.5625 0.3125 2.5625 0.3125 4.4375 1.4375 C5.5625 3.3125 5.5625 3.3125 5.3125 6.4375 C4.5625 9.3125 4.5625 9.3125 3.5625 10.3125 C0.625 10.5 0.625 10.5 -2.4375 10.3125 C-4.4375 8.3125 -4.4375 8.3125 -4.6875 5.3125 C-4.37675292 1.58353509 -3.7821044 0.48488518 0 0 Z " fill="#5A43CF" transform="translate(225.4375,17.6875)"/>
<path d="M0 0 C2.5 0.25 2.5 0.25 4.5 2.25 C4.75 5.25 4.75 5.25 4.5 8.25 C3.84 8.91 3.18 9.57 2.5 10.25 C-1.125 9.875 -1.125 9.875 -4.5 9.25 C-4.625 5.875 -4.625 5.875 -4.5 2.25 C-2.5 0.25 -2.5 0.25 0 0 Z " fill="#4434C7" transform="translate(124.5,17.75)"/>
<path d="M0 0 C3.3415471 3.3415471 4.73646493 6.47233266 6 11 C3 10 3 10 1.1875 7.1875 C-1.72686592 2.94085252 -4.4010705 0.54777437 -9.5390625 -0.53515625 C-12.0766863 -0.85327335 -14.44500169 -1.13785962 -17 -1 C-17.66 -0.34 -18.32 0.32 -19 1 C-19.66 0.34 -20.32 -0.32 -21 -1 C-15.09933735 -6.90066265 -6.17288033 -4.1287021 0 0 Z " fill="#2D8E34" transform="translate(89,133)"/>
<path d="M0 0 C23.97860627 1.17264685 23.97860627 1.17264685 34.08203125 6.94921875 C37.87024221 9.02463372 41.97492724 10.44935722 46 12 C46 12.66 46 13.32 46 14 C46.99 14.33 47.98 14.66 49 15 C48.34 15.33 47.68 15.66 47 16 C44.92298708 15.0307273 42.88805211 13.97094409 40.875 12.875 C27.91353294 6.12715003 14.35945744 3.18590751 0 1 C0 0.67 0 0.34 0 0 Z " fill="#499B43" transform="translate(130,24)"/>
<path d="M0 0 C0.66 0 1.32 0 2 0 C2.14330576 4.0567725 2.28569503 8.11357604 2.42724609 12.17041016 C2.47549846 13.5496507 2.52399846 14.92888261 2.57275391 16.30810547 C2.64290893 18.29392223 2.71209099 20.2797733 2.78125 22.265625 C2.82314453 23.45961914 2.86503906 24.65361328 2.90820312 25.88378906 C2.97805473 28.25502811 3 30.62773234 3 33 C1.68 33 0.36 33 -1 33 C-0.67 22.11 -0.34 11.22 0 0 Z " fill="#4D41B7" transform="translate(123,34)"/>
<path d="M0 0 C3.68881485 3.53156519 6.77382244 7.18534092 9.8125 11.3125 C10.21919922 11.86228516 10.62589844 12.41207031 11.04492188 12.97851562 C12.03368611 14.31625547 13.01738585 15.65773623 14 17 C13.67 17.66 13.34 18.32 13 19 C9.05243974 16.88819329 6.53383717 14.62073446 3.75 11.125 C3.06421875 10.28195313 2.3784375 9.43890625 1.671875 8.5703125 C-0.04035783 5.93795454 -0.71826551 4.10991535 -1 1 C-0.67 0.67 -0.34 0.34 0 0 Z " fill="#D8674E" transform="translate(233,157)"/>
<path d="M0 0 C3.76899876 3.1408323 6.00831369 6.46197315 6.49609375 11.33203125 C6.49955285 13.52856124 6.42866766 15.68632116 6.25 17.875 C5.92 17.875 5.59 17.875 5.25 17.875 C5.07984375 17.22273438 4.9096875 16.57046875 4.734375 15.8984375 C3.24332699 10.52114735 1.73476978 6.2590652 -1.75 1.875 C-4.63415883 0.43292059 -7.16721528 0.78105113 -10.375 0.8125 C-12.15777344 0.82603516 -12.15777344 0.82603516 -13.9765625 0.83984375 C-15.34941406 0.85724609 -15.34941406 0.85724609 -16.75 0.875 C-12.13839716 -3.73660284 -5.58507081 -2.2848017 0 0 Z " fill="#C2C4AB" transform="translate(94.75,120.125)"/>
<path d="M0 0 C9.19643869 0.62702991 18.4102996 4.8852019 26 10 C27.4375 12.25 27.4375 12.25 28 14 C26.35 13.34 24.7 12.68 23 12 C23 11.34 23 10.68 23 10 C22.3709375 9.82984375 21.741875 9.6596875 21.09375 9.484375 C16.02326782 8.04875655 11.41881151 6.38348844 6.76171875 3.91796875 C4.56950212 2.77568293 2.31306023 1.86739759 0 1 C0 0.67 0 0.34 0 0 Z " fill="#5DCD8E" transform="translate(153,26)"/>
<path d="M0 0 C0.33 0 0.66 0 1 0 C1.09796875 0.67546875 1.1959375 1.3509375 1.296875 2.046875 C2.1812255 7.63410363 2.1812255 7.63410363 4.875 12.5 C9.4721124 15.74502052 12.25864811 16.22082123 18 16 C17.67 16.99 17.34 17.98 17 19 C11.26763402 19.45858928 8.44703453 18.65645061 4 15 C-0.22082413 10.89325219 -0.72022802 7.68869699 -1 2 C-0.67 1.34 -0.34 0.68 0 0 Z " fill="#9D8546" transform="translate(48,139)"/>
<path d="M0 0 C0.99 0.66 1.98 1.32 3 2 C2.67 2.66 2.34 3.32 2 4 C1.67 3.67 1.34 3.34 1 3 C-6.26290944 2.27011948 -12.10266792 2.95711204 -18.73046875 5.9765625 C-21.75593049 7.34088432 -24.79386198 8.16361617 -28 9 C-28 8.34 -28 7.68 -28 7 C-7.44302265 -1.77814283 -7.44302265 -1.77814283 0 0 Z " fill="#A7AD89" transform="translate(91,120)"/>
<path d="M0 0 C0.33 0 0.66 0 1 0 C1 8.91 1 17.82 1 27 C0.34 26.67 -0.32 26.34 -1 26 C-1.22624982 22.4175621 -1.42787181 18.83414899 -1.625 15.25 C-1.68945312 14.23421875 -1.75390625 13.2184375 -1.8203125 12.171875 C-1.871875 11.1921875 -1.9234375 10.2125 -1.9765625 9.203125 C-2.02893066 8.30239258 -2.08129883 7.40166016 -2.13525391 6.47363281 C-1.98965654 3.81083053 -1.35693395 2.26927521 0 0 Z " fill="#C4B2BC" transform="translate(122,37)"/>
<path d="M0 0 C-2.1234016 0.83739781 -4.2487728 1.66980283 -6.375 2.5 C-7.55835937 2.9640625 -8.74171875 3.428125 -9.9609375 3.90625 C-13 5 -13 5 -15 5 C-15 5.66 -15 6.32 -15 7 C-16.28650706 7.69710731 -17.57940665 8.38242876 -18.875 9.0625 C-19.59429687 9.44535156 -20.31359375 9.82820312 -21.0546875 10.22265625 C-21.69664063 10.47917969 -22.33859375 10.73570312 -23 11 C-23.66 10.67 -24.32 10.34 -25 10 C-24 7 -24 7 -22.00634766 5.90917969 C-20.7231665 5.42046387 -20.7231665 5.42046387 -19.4140625 4.921875 C-18.01800781 4.38820313 -18.01800781 4.38820313 -16.59375 3.84375 C-15.6140625 3.4828125 -14.634375 3.121875 -13.625 2.75 C-12.65304688 2.37359375 -11.68109375 1.9971875 -10.6796875 1.609375 C-3.38900162 -1.12966721 -3.38900162 -1.12966721 0 0 Z " fill="#CACCB1" transform="translate(78,122)"/>
<path d="M0 0 C1.65 0 3.3 0 5 0 C5 2.31 5 4.62 5 7 C8.63 7.33 12.26 7.66 16 8 C16 8.33 16 8.66 16 9 C10.72 9 5.44 9 0 9 C0 6.03 0 3.06 0 0 Z " fill="#C73618" transform="translate(114,85)"/>
<path d="M0 0 C3.31248187 -0.02888146 6.62493167 -0.04675799 9.9375 -0.0625 C10.88302734 -0.07087891 11.82855469 -0.07925781 12.80273438 -0.08789062 C14.15141602 -0.09272461 14.15141602 -0.09272461 15.52734375 -0.09765625 C16.77632446 -0.10551147 16.77632446 -0.10551147 18.05053711 -0.11352539 C20 0 20 0 21 1 C21.14115161 3.67058851 21.04247107 6.32432238 21 9 C20.01 9.33 19.02 9.66 18 10 C17.61936779 7.6739143 17.28730055 5.33944736 17 3 C17.33 2.67 17.66 2.34 18 2 C12.06 1.67 6.12 1.34 0 1 C0 0.67 0 0.34 0 0 Z " fill="#D7644A" transform="translate(114,84)"/>
<path d="M0 0 C2.01013009 2.41215611 3.29233997 4.62965531 4.625 7.5 C7.53784329 13.55504432 11.88683504 18.72671159 16 24 C15.01 24.99 14.02 25.98 13 27 C13 26.01 13 25.02 13 24 C11.89348979 21.97440521 11.89348979 21.97440521 10.375 19.875 C9.56095703 18.68583984 9.56095703 18.68583984 8.73046875 17.47265625 C7.59491482 15.85007016 6.45190707 14.2326699 5.30078125 12.62109375 C2.36986533 8.42697435 0.27068832 5.27842229 0 0 Z " fill="#CD4628" transform="translate(227,154)"/>
<path d="M0 0 C-1 2 -1 2 -3.94921875 3.0703125 C-5.79966797 3.59238281 -5.79966797 3.59238281 -7.6875 4.125 C-9.51861328 4.65480469 -9.51861328 4.65480469 -11.38671875 5.1953125 C-14.7389502 5.9418635 -17.58359319 6.1574381 -21 6 C-14.97809967 1.05788869 -7.66142233 -0.49965798 0 0 Z " fill="#3FC474" transform="translate(102,25)"/>
<path d="M0 0 C3 1 3 1 4 3 C3.94921875 5.12890625 3.94921875 5.12890625 3.6875 7.5625 C3.56955078 8.77099609 3.56955078 8.77099609 3.44921875 10.00390625 C3.30097656 10.66261719 3.15273437 11.32132813 3 12 C2.01 12.495 2.01 12.495 1 13 C0.01 9.04 -0.98 5.08 -2 1 C-1.34 0.67 -0.68 0.34 0 0 Z " fill="#1E5B0E" transform="translate(95,128)"/>
<path d="M0 0 C5 1 5 1 7 3 C7.3125 5.5 7.3125 5.5 7 8 C6.01 8.66 5.02 9.32 4 10 C2.68 6.7 1.36 3.4 0 0 Z " fill="#5041CE" transform="translate(26,80)"/>
<path d="M0 0 C4.25438437 1.50597677 5.59420614 4.16747758 7.75 8 C8.67039063 9.60875 8.67039063 9.60875 9.609375 11.25 C11 14 11 14 11 16 C10.01 16 9.02 16 8 16 C7.16209211 14.21046815 6.32980604 12.41830305 5.5 10.625 C4.80390625 9.12839844 4.80390625 9.12839844 4.09375 7.6015625 C3 5 3 5 3 3 C2.34 3 1.68 3 1 3 C0.67 2.01 0.34 1.02 0 0 Z " fill="#60CC91" transform="translate(209,65)"/>
<path d="M0 0 C1.485 0.99 1.485 0.99 3 2 C3 2.99 3 3.98 3 5 C3.66 5 4.32 5 5 5 C5.86846831 6.74294678 6.71930627 8.49468663 7.5625 10.25 C8.27599609 11.71179688 8.27599609 11.71179688 9.00390625 13.203125 C10.03510273 16.09856297 10.11346788 17.19966161 9 20 C7 16 5 12 3 8 C2.43925781 6.91976562 1.87851563 5.83953125 1.30078125 4.7265625 C0 2 0 2 0 0 Z " fill="#4FA451" transform="translate(207,63)"/>
<path d="M0 0 C3.81936528 1.55603771 6.26044438 3.95604931 9 7 C9 7.66 9 8.32 9 9 C9.66 9 10.32 9 11 9 C11.66 10.98 12.32 12.96 13 15 C8.42265886 10.56570077 4.07873675 5.89853248 0 1 C0 0.67 0 0.34 0 0 Z " fill="#489B3C" transform="translate(195,52)"/>
<path d="M0 0 C0.33 0 0.66 0 1 0 C1.29321709 4.98469052 1.18338925 8.04820644 -2 12 C-4.5625 13.875 -4.5625 13.875 -7 15 C-7.66 14.67 -8.32 14.34 -9 14 C-7.34905067 12.34905067 -5.72013534 10.76253908 -3.9375 9.25 C-1.45948708 6.37230757 -0.84485179 3.66102441 0 0 Z " fill="#AAB18E" transform="translate(99,133)"/>
<path d="M0 0 C1.32 0.66 2.64 1.32 4 2 C4.1875 4.875 4.1875 4.875 4 8 C3.01 8.66 2.02 9.32 1 10 C0.67 8.68 0.34 7.36 0 6 C0.99 6 1.98 6 3 6 C1.68 5.34 0.36 4.68 -1 4 C-0.67 2.68 -0.34 1.36 0 0 Z " fill="#5D4BD1" transform="translate(24,18)"/>
<path d="M0 0 C-0.33 0.33 -0.66 0.66 -1 1 C-0.01 1.33 0.98 1.66 2 2 C2 2.66 2 3.32 2 4 C-1.3 4 -4.6 4 -8 4 C-7 1 -7 1 -4.5625 -0.25 C-2 -1 -2 -1 0 0 Z " fill="#29701E" transform="translate(82,123)"/>
<path d="M0 0 C2.0625 0.4375 2.0625 0.4375 4 1 C3.835 1.5775 3.67 2.155 3.5 2.75 C2.85537969 5.26664369 2.85537969 5.26664369 3 9 C1.68 8.34 0.36 7.68 -1 7 C-1.04254356 5.00045254 -1.04080783 2.99958364 -1 1 C-0.67 0.67 -0.34 0.34 0 0 Z " fill="#D05135" transform="translate(129,85)"/>
<path d="M0 0 C0.33 0.66 0.66 1.32 1 2 C1.66 2 2.32 2 3 2 C4 5 4 5 3 8 C1.68 7.67 0.36 7.34 -1 7 C-1.33 5.68 -1.66 4.36 -2 3 C-1.34 3 -0.68 3 0 3 C0 2.01 0 1.02 0 0 Z " fill="#331B87" transform="translate(223,20)"/>
<path d="M0 0 C0.680625 0.33 1.36125 0.66 2.0625 1 C5.50840238 2.17307315 8.38397422 2.14180493 12 2 C11.67 2.99 11.34 3.98 11 5 C3.57142857 5.28571429 3.57142857 5.28571429 0 3 C0 2.01 0 1.02 0 0 Z " fill="#9D8F62" transform="translate(54,153)"/>
<path d="M0 0 C0 0.99 0 1.98 0 3 C0.66 3.66 1.32 4.32 2 5 C0.02 6.32 -1.96 7.64 -4 9 C-4.66 8.34 -5.32 7.68 -6 7 C-4.02 4.69 -2.04 2.38 0 0 Z " fill="#51BA72" transform="translate(61,41)"/>
<path d="M0 0 C0.33 0 0.66 0 1 0 C1.23053497 2.84326464 1.35903101 4.46145349 -0.25 6.875 C-2 8 -2 8 -4.109375 7.5703125 C-4.73328125 7.38210937 -5.3571875 7.19390625 -6 7 C-5.02433888 5.83040013 -4.044375 4.66438823 -3.0625 3.5 C-2.51722656 2.8503125 -1.97195312 2.200625 -1.41015625 1.53125 C-0.71212891 0.77328125 -0.71212891 0.77328125 0 0 Z " fill="#7751CC" transform="translate(225,83)"/>
<path d="M0 0 C0.66 0 1.32 0 2 0 C2 0.99 2 1.98 2 3 C2.99 3.33 3.98 3.66 5 4 C4.67 4.99 4.34 5.98 4 7 C2.68 6.34 1.36 5.68 0 5 C0 3.35 0 1.7 0 0 Z " fill="#471C6B" transform="translate(216,83)"/>
<path d="M0 0 C0.66 0 1.32 0 2 0 C2 0.66 2 1.32 2 2 C3.32 2.33 4.64 2.66 6 3 C5.34 3 4.68 3 4 3 C3.67 3.99 3.34 4.98 3 6 C2.01 6 1.02 6 0 6 C0 4.02 0 2.04 0 0 Z " fill="#AF94A7" transform="translate(120,65)"/>
<path d="M0 0 C0.33 0 0.66 0 1 0 C1.125 2.875 1.125 2.875 1 6 C0.34 6.66 -0.32 7.32 -1 8 C-1.66 6.68 -2.32 5.36 -3 4 C-2.02727325 2.64664105 -1.0260734 1.31337396 0 0 Z " fill="#48B065" transform="translate(32,74)"/>
<path d="M0 0 C0.66 0 1.32 0 2 0 C2 0.99 2 1.98 2 3 C2.66 3 3.32 3 4 3 C4 4.32 4 5.64 4 7 C2.68 6.67 1.36 6.34 0 6 C0 4.02 0 2.04 0 0 Z " fill="#51236E" transform="translate(120,21)"/>
<path d="M0 0 C-5.2734375 3.22265625 -5.2734375 3.22265625 -7 4 C-7.66 3.67 -8.32 3.34 -9 3 C-8.67 2.01 -8.34 1.02 -8 0 C-2.25 -1.125 -2.25 -1.125 0 0 Z " fill="#B8C5A5" transform="translate(62,129)"/>
<path d="M0 0 C0.99 0.99 1.98 1.98 3 3 C0.64561267 4.42944945 -0.48032433 5.08661261 -3.25 4.625 C-3.8275 4.41875 -4.405 4.2125 -5 4 C-3.35 2.68 -1.7 1.36 0 0 Z " fill="#D43A38" transform="translate(220,158)"/>
<path d="M0 0 C4.875 2.75 4.875 2.75 6 5 C5.34 5.66 4.68 6.32 4 7 C0 2.25 0 2.25 0 0 Z " fill="#C3220B" transform="translate(234,174)"/>
<path d="M0 0 C0.99 0 1.98 0 3 0 C2.67 1.65 2.34 3.3 2 5 C0.68 4.34 -0.64 3.68 -2 3 C-1.34 2.01 -0.68 1.02 0 0 Z " fill="#50BA6C" transform="translate(41,60)"/>
</svg>
